<svg width="304" height="304" viewBox="0 0 304 304" fill="none" xmlns="http://www.w3.org/2000/svg">
<path d="M302.381 33.8665C306.214 41.6492 302.969 48.9985 295.24 53.6231C291.676 55.7539 288.141 60.0604 287.032 64.0911C277.037 100.491 275.165 138.006 273.654 175.535C273.535 178.451 273.33 181.364 273.091 185.654C200.386 163.606 128.939 167.153 59.5419 192.753C54.5345 166.55 50.9513 141.609 44.7223 117.394C40.5649 101.237 32.9004 85.987 26.145 70.6354C24.96 67.9361 20.6619 66.5033 17.5826 64.9384C15.3308 63.7956 12.6033 63.6661 10.2867 62.6218C1.98043 58.8867 -2.42464 50.8647 1.38371 43.5041C3.2724 39.845 9.05671 36.228 13.0508 36.2618C22.2832 36.3378 30.916 44.9875 29.1399 52.4015C27.223 60.432 30.7387 65.1269 35.2141 69.6277C50.85 85.3396 65.6695 102.239 82.8901 115.874C106.63 134.671 125.767 127.389 143.311 97.8201C145.482 94.161 147.373 90.3358 149.262 86.5162C152.462 80.0423 156.862 73.7879 148.465 66.3148C143.57 61.9576 144.108 53.6766 149.616 48.3286C154.835 43.262 161.385 42.4373 167.293 46.8959C173.485 51.574 177.384 58.7178 172.849 65.8785C168.774 72.3214 170.772 76.4056 173.773 81.703C189.223 108.981 194.264 114.072 219.281 126.508C201.562 133.93 181.001 120.901 163.955 91.2027C154.784 104.227 145.701 117.118 135.706 131.313L163.645 138.35C129.024 150.599 98.1854 142.572 66.4436 129.672C70.2745 142.651 73.6775 154.16 77.3114 166.474C135.467 149.023 194.202 150.115 254.077 160.513C255.994 147.416 257.84 134.809 259.83 121.197C224.615 132.219 202.607 113.929 183.72 86.6062C195.863 74.2946 204.83 60.3841 208.563 43.3803C210.133 36.2168 211.532 30.0384 203.257 24.8593C195.727 20.1474 195.3 9.18962 200.521 3.97109C206.314 -1.81601 216.793 -1.18833 222.195 5.26869C228.545 12.8685 227.464 21.3409 219.636 27.6205C217.905 29.0082 215.481 31.671 215.791 33.25C219.366 51.3404 223.368 69.3406 227.385 87.3352C227.728 88.8721 228.939 90.2175 229.803 91.6165C240.845 109.493 248.718 109.94 259.661 92.5397C267.878 79.4737 275.213 65.8194 283.024 52.3086C281.501 50.3383 280.184 48.9169 279.185 47.2899C274.205 39.2116 275.525 30.5619 282.281 26.3229C289.171 21.9882 298.207 25.3828 302.381 33.8665Z" fill="white"/>
<path d="M252.58 198.617C257.83 236.382 245.467 267.102 214.775 288.125C184.773 308.673 152.716 309.337 122.03 289.64C90.3413 269.292 77.2471 238.744 81.7225 200.435C82.6908 192.157 83.3495 191.937 98.8305 189.928C91.2448 227.713 101.232 257.16 127.203 275.014C152.606 292.466 184.061 292.623 208.6 274.029C238.436 251.427 244.536 220.808 234.259 185.489C247.95 184.101 250.779 185.759 252.58 198.617Z" fill="white"/>
<path d="M219.084 198.771C221.119 219.246 211.907 237.308 194.644 246.673C178.386 255.494 158.584 253.124 144.131 240.624C130.04 228.436 125.019 208.519 129.936 190.139C133.62 176.372 144.08 179.609 154.762 177.472C140.26 196.142 139.118 212.673 150.168 225.824C159.851 237.347 176.796 240.103 189.673 232.253C203.1 224.073 207.938 208.786 201.875 192.095C195.61 196.362 188.646 199.013 183.275 191.754C181.108 188.827 181.119 183.873 181.145 179.842C181.145 179.203 186.493 178.266 189.383 178.08C192.567 177.875 195.795 178.387 199.001 178.576C214.674 179.513 217.441 182.294 219.084 198.771Z" fill="white"/>
<path d="M113.965 53.8884C122.747 65.9721 132.067 77.6392 141.657 90.1197C129.705 116.894 110.413 126.43 87.701 114.4C100.452 105.195 104.513 92.3856 104.77 78.371C104.955 68.1563 103.818 57.8234 102.284 47.7185C101.842 44.7996 98.4561 41.4501 95.6048 39.9948C86.9382 35.5644 82.3418 26.1238 85.7532 17.9554C88.4244 11.566 96.4971 9.11714 104.117 12.3794C112.977 16.1737 117.261 24.7643 112.074 33.3858C107.058 41.74 109.524 47.772 113.965 53.8884Z" fill="white"/>
</svg>
